<?xml version="1.0" encoding="utf-8"?>
<svg xmlns="http://www.w3.org/2000/svg"
	xmlns:xlink="http://www.w3.org/1999/xlink"
	width="47px" height="33px" viewBox="0 0 47 33">
<path fillRule="evenodd" d="M 24 2.03C 25.84 2.02 34.43-0.51 47.59 0.47 48 1.05 47.32 3.58 47.32 3.58 47.32 3.58 46.73 3.54 46.32 4.2 45.91 4.87 45.86 5.49 45.04 7.63 44.23 9.76 43.86 14.43 35.77 14.43 28.72 14.43 26.72 8.87 26.22 7.85 25.73 6.86 25.06 4.97 24 4.97 22.94 4.97 22.27 6.86 21.78 7.85 21.28 8.87 19.28 14.43 12.23 14.43 4.14 14.43 3.77 9.76 2.96 7.63 2.14 5.49 2.09 4.87 1.68 4.2 1.27 3.54 0.68 3.58 0.68 3.58 0.68 3.58 0 1.05 0.41 0.47 13.57-0.51 22.16 2.02 24 2.03ZM 45.83 2.54C 46.21 2.54 46.52 2.23 46.52 1.86 46.52 1.48 46.21 1.18 45.83 1.18 45.44 1.18 45.13 1.48 45.13 1.86 45.13 2.23 45.44 2.54 45.83 2.54ZM 27.47 6.54C 28.22 10.87 30.94 13.14 36.54 13.14 43.66 13.14 43.29 7.47 43.5 4.74 43.7 2 41.13 1.65 40.5 1.67 37.65 1.79 33.27 1.94 32.52 2.07 31.76 2.2 26.72 2.2 27.47 6.54ZM 11.35 13.14C 16.94 13.14 19.67 10.87 20.42 6.54 21.17 2.2 16.12 2.2 15.37 2.07 14.62 1.94 10.23 1.79 7.39 1.67 6.76 1.65 4.19 2 4.39 4.74 4.6 7.47 4.23 13.14 11.35 13.14ZM 2.52 2.54C 2.91 2.54 3.22 2.23 3.22 1.86 3.22 1.48 2.91 1.18 2.52 1.18 2.14 1.18 1.83 1.48 1.83 1.86 1.83 2.23 2.14 2.54 2.52 2.54ZM 6.4 25.38C 6.4 26.04 7.42 27.66 7.47 27.33 7.52 26.99 7.96 26.09 7.96 26.09 7.96 26.09 7.76 28.23 9.85 28.42 12.4 28.65 13.35 23.93 15.17 21.98 18.04 18.91 23.48 21.51 24.19 25.09 24.23 25.26 24.26 25.43 24.28 25.6 24.31 25.43 24.34 25.26 24.38 25.09 25.09 21.51 30.53 18.91 33.4 21.98 35.22 23.93 36.17 28.65 38.72 28.42 40.81 28.23 40.61 26.09 40.61 26.09 40.61 26.09 41.05 26.99 41.1 27.33 41.15 27.66 42.16 26.04 42.16 25.38 42.16 24.72 42.84 27.33 42.5 29.27 41.68 34 36.79 33.68 33.34 32.52 30.71 31.63 27.28 30.2 25.41 28.74 24.74 28.23 24.42 27.68 24.28 27.1 24.15 27.68 23.83 28.23 23.16 28.74 21.29 30.2 17.86 31.63 15.23 32.52 11.78 33.68 6.89 34 6.07 29.27 5.73 27.33 6.4 24.72 6.4 25.38Z" fill="rgb(67,67,67)"/></svg>